IbarraReal-Italic.ufo
<glyph name="parenleft" format="2">
  <advance width="332"/>
  <unicode hex="0028"/>
  <outline>
    <contour>
      <point x="93" y="-232" type="curve"/>
      <point x="117" y="-219" type="line"/>
      <point x="94" y="-141"/>
      <point x="78" y="-66"/>
      <point x="78" y="7" type="curve" smooth="yes"/>
      <point x="78" y="294"/>
      <point x="250" y="537"/>
      <point x="466" y="734" type="curve"/>
      <point x="445" y="752" type="line"/>
      <point x="211" y="563"/>
      <point x="20" y="315"/>
      <point x="20" y="50" type="curve" smooth="yes"/>
      <point x="20" y="-42"/>
      <point x="39" y="-137"/>
    </contour>
  </outline>
</glyph>
<glyph name="one" format="2">
  <advance width="410"/>
  <unicode hex="0031"/>
  <outline>
    <contour>
      <point x="-46" y="0" type="line"/>
      <point x="289" y="0" type="line"/>
      <point x="296" y="18" type="line"/>
      <point x="256" y="26" type="line" smooth="yes"/>
      <point x="180" y="41"/>
      <point x="181" y="42"/>
      <point x="204" y="101" type="curve" smooth="yes"/>
      <point x="440" y="685" type="line"/>
      <point x="231" y="649" type="line"/>
      <point x="224" y="632" type="line"/>
      <point x="309" y="635" type="line" smooth="yes"/>
      <point x="330" y="636"/>
      <point x="333" y="629"/>
      <point x="326" y="612" type="curve" smooth="yes"/>
      <point x="119" y="101" type="line" smooth="yes"/>
      <point x="96" y="42"/>
      <point x="95" y="41"/>
      <point x="7" y="26" type="curve" smooth="yes"/>
      <point x="-39" y="18" type="line"/>
    </contour>
  </outline>
</glyph>
<glyph name="three" format="2">
  <advance width="526"/>
  <unicode hex="0033"/>
  <outline>
    <contour>
      <point x="141" y="-10" type="curve" smooth="yes"/>
      <point x="303" y="-10"/>
      <point x="472" y="90"/>
      <point x="472" y="265" type="curve" smooth="yes"/>
      <point x="472" y="330"/>
      <point x="429" y="389"/>
      <point x="357" y="397" type="curve"/>
      <point x="357" y="398" type="line"/>
      <point x="438" y="429"/>
      <point x="544" y="482"/>
      <point x="544" y="574" type="curve" smooth="yes"/>
      <point x="544" y="632"/>
      <point x="490" y="679"/>
      <point x="394" y="679" type="curve" smooth="yes"/>
      <point x="297" y="679"/>
      <point x="194" y="634"/>
      <point x="194" y="546" type="curve" smooth="yes"/>
      <point x="194" y="517"/>
      <point x="215" y="504"/>
      <point x="236" y="504" type="curve" smooth="yes"/>
      <point x="263" y="504"/>
      <point x="289" y="520"/>
      <point x="289" y="546" type="curve" smooth="yes"/>
      <point x="289" y="569"/>
      <point x="273" y="581"/>
      <point x="273" y="600" type="curve" smooth="yes"/>
      <point x="273" y="628"/>
      <point x="322" y="651"/>
      <point x="372" y="651" type="curve" smooth="yes"/>
      <point x="431" y="651"/>
      <point x="454" y="626"/>
      <point x="454" y="584" type="curve" smooth="yes"/>
      <point x="454" y="474"/>
      <point x="333" y="411"/>
      <point x="247" y="376" type="curve" smooth="yes"/>
      <point x="196" y="355" type="line"/>
      <point x="203" y="337" type="line"/>
      <point x="263" y="355" type="line"/>
      <point x="339" y="352"/>
      <point x="372" y="302"/>
      <point x="372" y="250" type="curve" smooth="yes"/>
      <point x="372" y="117"/>
      <point x="266" y="22"/>
      <point x="132" y="22" type="curve" smooth="yes"/>
      <point x="89" y="22"/>
      <point x="54" y="39"/>
      <point x="54" y="63" type="curve" smooth="yes"/>
      <point x="54" y="80"/>
      <point x="85" y="90"/>
      <point x="85" y="126" type="curve" smooth="yes"/>
      <point x="85" y="141"/>
      <point x="75" y="165"/>
      <point x="40" y="165" type="curve" smooth="yes"/>
      <point x="9" y="165"/>
      <point x="-8" y="132"/>
      <point x="-8" y="103" type="curve" smooth="yes"/>
      <point x="-8" y="33"/>
      <point x="51" y="-10"/>
    </contour>
  </outline>
</glyph>
<glyph name="four" format="2">
  <advance width="547"/>
  <unicode hex="0034"/>
  <outline>
    <contour>
      <point x="105" y="0" type="line"/>
      <point x="421" y="0" type="line"/>
      <point x="428" y="18" type="line"/>
      <point x="381" y="27" type="line" smooth="yes"/>
      <point x="330" y="37"/>
      <point x="323" y="44"/>
      <point x="340" y="86" type="curve" smooth="yes"/>
      <point x="582" y="685" type="line"/>
      <point x="575" y="685" type="line"/>
      <point x="19" y="197" type="line"/>
      <point x="12" y="179" type="line"/>
      <point x="466" y="179" type="line"/>
      <point x="549" y="323" type="line"/>
      <point x="531" y="323" type="line"/>
      <point x="500" y="280" type="line" smooth="yes"/>
      <point x="482" y="255"/>
      <point x="472" y="249"/>
      <point x="444" y="249" type="curve" smooth="yes"/>
      <point x="85" y="249" type="line"/>
      <point x="85" y="225" type="line"/>
      <point x="463" y="557" type="line"/>
      <point x="447" y="563" type="line"/>
      <point x="254" y="86" type="line" smooth="yes"/>
      <point x="237" y="44"/>
      <point x="226" y="37"/>
      <point x="167" y="27" type="curve" smooth="yes"/>
      <point x="112" y="18" type="line"/>
    </contour>
  </outline>
</glyph>
<glyph name="A" format="2">
  <advance width="757"/>
  <unicode hex="0041"/>
  <anchor x="636" y="690" name="topcase"/>
  <outline>
    <contour>
      <point x="-81" y="0" type="line"/>
      <point x="175" y="0" type="line"/>
      <point x="184" y="18" type="line"/>
      <point x="126" y="30" type="line" smooth="yes"/>
      <point x="88" y="37"/>
      <point x="95" y="52"/>
      <point x="123" y="82" type="curve" smooth="yes"/>
      <point x="555" y="564" type="line"/>
      <point x="547" y="564" type="line"/>
      <point x="508" y="102" type="line" smooth="yes"/>
      <point x="504" y="49"/>
      <point x="487" y="36"/>
      <point x="426" y="27" type="curve" smooth="yes"/>
      <point x="367" y="18" type="line"/>
      <point x="358" y="0" type="line"/>
      <point x="664" y="0" type="line"/>
      <point x="673" y="18" type="line"/>
      <point x="638" y="26" type="line" smooth="yes"/>
      <point x="601" y="34"/>
      <point x="587" y="48"/>
      <point x="592" y="107" type="curve" smooth="yes"/>
      <point x="645" y="698" type="line"/>
      <point x="636" y="698" type="line"/>
      <point x="626" y="677"/>
      <point x="587" y="637"/>
      <point x="548" y="635" type="curve"/>
      <point x="546" y="595" type="line"/>
      <point x="89" y="84" type="line" smooth="yes"/>
      <point x="59" y="51"/>
      <point x="29" y="34"/>
      <point x="-20" y="26" type="curve" smooth="yes"/>
      <point x="-72" y="18" type="line"/>
    </contour>
    <contour>
      <point x="247" y="229" type="line"/>
      <point x="547" y="229" type="line"/>
      <point x="563" y="261" type="line"/>
      <point x="270" y="261" type="line"/>
    </contour>
  </outline>
</glyph>
<glyph name="N" format="2">
  <advance width="856"/>
  <unicode hex="004E"/>
  <anchor x="612" y="690" name="topcase"/>
  <outline>
    <contour>
      <point x="606" y="-16" type="line"/>
      <point x="614" y="-16" type="line"/>
      <point x="855" y="581" type="line" smooth="yes"/>
      <point x="872" y="623"/>
      <point x="885" y="634"/>
      <point x="944" y="644" type="curve" smooth="yes"/>
      <point x="1010" y="655" type="line"/>
      <point x="1017" y="673" type="line"/>
      <point x="738" y="673" type="line"/>
      <point x="731" y="655" type="line"/>
      <point x="787" y="644" type="line" smooth="yes"/>
      <point x="838" y="634"/>
      <point x="842" y="620"/>
      <point x="825" y="578" type="curve" smooth="yes"/>
      <point x="642" y="122" type="line"/>
      <point x="390" y="673" type="line"/>
      <point x="226" y="673" type="line"/>
      <point x="219" y="656" type="line"/>
      <point x="263" y="647" type="line" smooth="yes"/>
      <point x="332" y="633"/>
      <point x="332" y="624"/>
      <point x="314" y="578" type="curve" smooth="yes"/>
      <point x="117" y="92" type="line" smooth="yes"/>
      <point x="100" y="50"/>
      <point x="87" y="39"/>
      <point x="28" y="29" type="curve" smooth="yes"/>
      <point x="-37" y="18" type="line"/>
      <point x="-45" y="0" type="line"/>
      <point x="234" y="0" type="line"/>
      <point x="242" y="18" type="line"/>
      <point x="185" y="29" type="line" smooth="yes"/>
      <point x="134" y="39"/>
      <point x="131" y="53"/>
      <point x="148" y="95" type="curve" smooth="yes"/>
      <point x="340" y="567" type="line"/>
    </contour>
  </outline>
</glyph>
<glyph name="U" format="2">
  <advance width="792"/>
  <unicode hex="0055"/>
  <anchor x="618" y="690" name="topcase"/>
  <outline>
    <contour>
      <point x="313" y="-13" type="curve" smooth="yes"/>
      <point x="409" y="-13"/>
      <point x="471" y="29"/>
      <point x="518" y="63" type="curve" smooth="yes"/>
      <point x="552" y="88"/>
      <point x="577" y="110"/>
      <point x="602" y="110" type="curve"/>
      <point x="791" y="581" type="line" smooth="yes"/>
      <point x="808" y="623"/>
      <point x="821" y="634"/>
      <point x="880" y="644" type="curve" smooth="yes"/>
      <point x="946" y="655" type="line"/>
      <point x="953" y="673" type="line"/>
      <point x="674" y="673" type="line"/>
      <point x="667" y="655" type="line"/>
      <point x="723" y="644" type="line" smooth="yes"/>
      <point x="774" y="634"/>
      <point x="778" y="620"/>
      <point x="761" y="578" type="curve" smooth="yes"/>
      <point x="623" y="236" type="line" smooth="yes"/>
      <point x="573" y="112"/>
      <point x="475" y="37"/>
      <point x="354" y="37" type="curve" smooth="yes"/>
      <point x="230" y="37"/>
      <point x="200" y="113"/>
      <point x="248" y="232" type="curve" smooth="yes"/>
      <point x="391" y="585" type="line" smooth="yes"/>
      <point x="408" y="627"/>
      <point x="419" y="634"/>
      <point x="478" y="644" type="curve" smooth="yes"/>
      <point x="544" y="655" type="line"/>
      <point x="551" y="673" type="line"/>
      <point x="211" y="673" type="line"/>
      <point x="204" y="655" type="line"/>
      <point x="260" y="644" type="line" smooth="yes"/>
      <point x="311" y="634"/>
      <point x="318" y="627"/>
      <point x="301" y="585" type="curve" smooth="yes"/>
      <point x="158" y="231" type="line" smooth="yes"/>
      <point x="100" y="93"/>
      <point x="156" y="-13"/>
    </contour>
  </outline>
</glyph>
<glyph name="bracketleft" format="2">
  <advance width="269"/>
  <unicode hex="005B"/>
  <outline>
    <contour>
      <point x="-135" y="-215" type="line"/>
      <point x="55" y="-215" type="line"/>
      <point x="67" y="-185" type="line"/>
      <point x="-63" y="-185" type="line"/>
      <point x="301" y="714" type="line"/>
      <point x="431" y="714" type="line"/>
      <point x="443" y="744" type="line"/>
      <point x="253" y="744" type="line"/>
    </contour>
  </outline>
</glyph>
<glyph name="asciicircum" format="2">
  <advance width="516"/>
  <unicode hex="005E"/>
  <outline>
    <contour>
      <point x="85" y="325" type="line"/>
      <point x="152" y="325" type="line"/>
      <point x="430" y="605" type="line"/>
      <point x="408" y="605" type="line"/>
      <point x="467" y="325" type="line"/>
      <point x="521" y="325" type="line"/>
      <point x="459" y="651" type="line"/>
      <point x="411" y="651" type="line"/>
    </contour>
  </outline>
</glyph>
<glyph name="o" format="2">
  <advance width="436"/>
  <unicode hex="006F"/>
  <anchor x="303" y="470" name="top"/>
  <outline>
    <contour>
      <point x="159" y="-7" type="curve" smooth="yes"/>
      <point x="299" y="-7"/>
      <point x="396" y="175"/>
      <point x="396" y="292" type="curve" smooth="yes"/>
      <point x="396" y="375"/>
      <point x="354" y="434"/>
      <point x="278" y="434" type="curve" smooth="yes"/>
      <point x="138" y="434"/>
      <point x="41" y="252"/>
      <point x="41" y="135" type="curve" smooth="yes"/>
      <point x="41" y="52"/>
      <point x="83" y="-7"/>
    </contour>
    <contour>
      <point x="152" y="13" type="curve" smooth="yes"/>
      <point x="119" y="13"/>
      <point x="99" y="43"/>
      <point x="99" y="91" type="curve" smooth="yes"/>
      <point x="99" y="200"/>
      <point x="193" y="411"/>
      <point x="285" y="411" type="curve" smooth="yes"/>
      <point x="320" y="411"/>
      <point x="338" y="384"/>
      <point x="338" y="336" type="curve" smooth="yes"/>
      <point x="338" y="227"/>
      <point x="244" y="13"/>
    </contour>
  </outline>
</glyph>
<glyph name="asciitilde" format="2">
  <advance width="530"/>
  <unicode hex="007E"/>
  <outline>
    <contour>
      <point x="147" y="292" type="line"/>
      <point x="158" y="328"/>
      <point x="177" y="338"/>
      <point x="206" y="338" type="curve" smooth="yes"/>
      <point x="234" y="338"/>
      <point x="267" y="326"/>
      <point x="301" y="314" type="curve" smooth="yes"/>
      <point x="337" y="301"/>
      <point x="376" y="289"/>
      <point x="412" y="289" type="curve" smooth="yes"/>
      <point x="459" y="289"/>
      <point x="501" y="312"/>
      <point x="515" y="371" type="curve"/>
      <point x="481" y="378" type="line"/>
      <point x="470" y="342"/>
      <point x="451" y="332"/>
      <point x="422" y="332" type="curve" smooth="yes"/>
      <point x="394" y="332"/>
      <point x="361" y="344"/>
      <point x="327" y="356" type="curve" smooth="yes"/>
      <point x="291" y="369"/>
      <point x="252" y="381"/>
      <point x="216" y="381" type="curve" smooth="yes"/>
      <point x="169" y="381"/>
      <point x="127" y="358"/>
      <point x="113" y="299" type="curve"/>
    </contour>
  </outline>
</glyph>
<glyph name="brokenbar" format="2">
  <advance width="283"/>
  <unicode hex="00A6"/>
  <outline>
    <contour>
      <point x="169" y="340" type="line"/>
      <point x="210" y="340" type="line"/>
      <point x="210" y="691" type="line"/>
      <point x="169" y="691" type="line"/>
    </contour>
    <contour>
      <point x="210" y="-141" type="line"/>
      <point x="210" y="210" type="line"/>
      <point x="169" y="210" type="line"/>
      <point x="169" y="-141" type="line"/>
    </contour>
  </outline>
</glyph>
<glyph name="logicalnot" format="2">
  <advance width="530"/>
  <unicode hex="00AC"/>
  <outline>
    <contour>
      <point x="479" y="228" type="line"/>
      <point x="518" y="228" type="line"/>
      <point x="518" y="429" type="line"/>
      <point x="102" y="429" type="line"/>
      <point x="102" y="391" type="line"/>
      <point x="479" y="391" type="line"/>
    </contour>
  </outline>
</glyph>
<glyph name="twosuperior" format="2">
  <advance width="315"/>
  <unicode hex="00B2"/>
  <outline>
    <contour>
      <point x="89" y="349" type="line"/>
      <point x="309" y="349" type="line"/>
      <point x="367" y="454" type="line"/>
      <point x="353" y="454" type="line"/>
      <point x="340" y="437" type="line"/>
      <point x="321" y="414"/>
      <point x="315" y="410"/>
      <point x="293" y="410" type="curve" smooth="yes"/>
      <point x="189" y="410" type="line"/>
      <point x="142" y="366" type="line"/>
      <point x="244" y="436" type="line" smooth="yes"/>
      <point x="330" y="495"/>
      <point x="428" y="553"/>
      <point x="428" y="625" type="curve" smooth="yes"/>
      <point x="428" y="671"/>
      <point x="377" y="686"/>
      <point x="326" y="686" type="curve" smooth="yes"/>
      <point x="259" y="686"/>
      <point x="194" y="660"/>
      <point x="194" y="607" type="curve" smooth="yes"/>
      <point x="194" y="590"/>
      <point x="210" y="583"/>
      <point x="222" y="583" type="curve" smooth="yes"/>
      <point x="237" y="583"/>
      <point x="255" y="593"/>
      <point x="255" y="607" type="curve" smooth="yes"/>
      <point x="255" y="620"/>
      <point x="248" y="624"/>
      <point x="248" y="637" type="curve" smooth="yes"/>
      <point x="248" y="654"/>
      <point x="270" y="668"/>
      <point x="309" y="668" type="curve" smooth="yes"/>
      <point x="335" y="668"/>
      <point x="351" y="655"/>
      <point x="351" y="628" type="curve" smooth="yes"/>
      <point x="351" y="559"/>
      <point x="287" y="487"/>
      <point x="223" y="444" type="curve" smooth="yes"/>
      <point x="91" y="355" type="line"/>
    </contour>
  </outline>
</glyph>
<glyph name="onesuperior" format="2">
  <advance width="277"/>
  <unicode hex="00B9"/>
  <outline>
    <contour>
      <point x="85" y="349" type="line"/>
      <point x="292" y="349" type="line"/>
      <point x="298" y="364" type="line"/>
      <point x="276" y="368" type="line" smooth="yes"/>
      <point x="231" y="375"/>
      <point x="232" y="376"/>
      <point x="244" y="406" type="curve" smooth="yes"/>
      <point x="359" y="691" type="line"/>
      <point x="223" y="672" type="line"/>
      <point x="217" y="657" type="line"/>
      <point x="267" y="659" type="line" smooth="yes"/>
      <point x="277" y="659"/>
      <point x="280" y="656"/>
      <point x="276" y="647" type="curve" smooth="yes"/>
      <point x="179" y="406" type="line" smooth="yes"/>
      <point x="167" y="376"/>
      <point x="166" y="375"/>
      <point x="117" y="368" type="curve" smooth="yes"/>
      <point x="91" y="364" type="line"/>
    </contour>
  </outline>
</glyph>
<glyph name="onequarter" format="2">
  <advance width="595"/>
  <unicode hex="00BC"/>
  <outline>
    <contour>
      <point x="363" y="0" type="line"/>
      <point x="423" y="0" type="line"/>
      <point x="561" y="342" type="line"/>
      <point x="545" y="342" type="line"/>
      <point x="226" y="72" type="line"/>
      <point x="222" y="63" type="line"/>
      <point x="487" y="63" type="line"/>
      <point x="534" y="149" type="line"/>
      <point x="522" y="149" type="line"/>
      <point x="508" y="131" type="line" smooth="yes"/>
      <point x="498" y="119"/>
      <point x="495" y="116"/>
      <point x="481" y="116" type="curve" smooth="yes"/>
      <point x="297" y="116" type="line"/>
      <point x="305" y="109" type="line"/>
      <point x="501" y="277" type="line"/>
      <point x="466" y="256" type="line"/>
    </contour>
    <component base="onesuperior"/>
    <component base="fraction" xOffset="105"/>
  </outline>
</glyph>
<glyph name="Eth" format="2">
  <advance width="805"/>
  <unicode hex="00D0"/>
  <guideline x="159" y="503" angle="68"/>
  <outline>
    <contour>
      <point x="85" y="321" type="line"/>
      <point x="428" y="321" type="line"/>
      <point x="442" y="356" type="line"/>
      <point x="99" y="356" type="line"/>
    </contour>
    <component base="D"/>
  </outline>
</glyph>
<glyph name="Oslash" format="2">
  <advance width="829"/>
  <unicode hex="00D8"/>
  <guideline x="123" y="366" angle="68"/>
  <guideline x="855" y="393" angle="68"/>
  <guideline x="827" y="681" angle="0"/>
  <outline>
    <contour>
      <point x="-1" y="-8" type="line"/>
      <point x="958" y="651" type="line"/>
      <point x="936" y="681" type="line"/>
      <point x="-22" y="22" type="line"/>
    </contour>
    <component base="O" xOffset="7"/>
  </outline>
</glyph>
<glyph name="Thorn" format="2">
  <advance width="612"/>
  <unicode hex="00DE"/>
  <outline>
    <contour>
      <point x="-46" y="0" type="line"/>
      <point x="294" y="0" type="line"/>
      <point x="301" y="18" type="line"/>
      <point x="245" y="29" type="line" smooth="yes"/>
      <point x="194" y="39"/>
      <point x="188" y="46"/>
      <point x="205" y="88" type="curve" smooth="yes"/>
      <point x="378" y="519" type="line"/>
      <point x="414" y="519" type="line" smooth="yes"/>
      <point x="500" y="519"/>
      <point x="550" y="488"/>
      <point x="550" y="421" type="curve" smooth="yes"/>
      <point x="550" y="273"/>
      <point x="399" y="193"/>
      <point x="292" y="187" type="curve"/>
      <point x="288" y="180" type="line"/>
      <point x="305" y="175"/>
      <point x="324" y="172"/>
      <point x="344" y="172" type="curve" smooth="yes"/>
      <point x="492" y="172"/>
      <point x="649" y="286"/>
      <point x="649" y="410" type="curve" smooth="yes"/>
      <point x="649" y="490"/>
      <point x="572" y="543"/>
      <point x="439" y="543" type="curve" smooth="yes"/>
      <point x="388" y="543" type="line"/>
      <point x="405" y="585" type="line" smooth="yes"/>
      <point x="422" y="627"/>
      <point x="434" y="634"/>
      <point x="493" y="644" type="curve" smooth="yes"/>
      <point x="559" y="655" type="line"/>
      <point x="566" y="673" type="line"/>
      <point x="226" y="673" type="line"/>
      <point x="219" y="655" type="line"/>
      <point x="275" y="644" type="line" smooth="yes"/>
      <point x="326" y="634"/>
      <point x="332" y="627"/>
      <point x="315" y="585" type="curve" smooth="yes"/>
      <point x="115" y="88" type="line" smooth="yes"/>
      <point x="98" y="46"/>
      <point x="86" y="39"/>
      <point x="27" y="29" type="curve" smooth="yes"/>
      <point x="-39" y="18" type="line"/>
    </contour>
  </outline>
</glyph>
<glyph name="germandbls" format="2">
  <advance width="559"/>
  <unicode hex="00DF"/>
  <outline>
    <contour>
      <point x="-92" y="-247" type="curve" smooth="yes"/>
      <point x="-37" y="-247"/>
      <point x="-3" y="-210"/>
      <point x="19" y="-178" type="curve" smooth="yes"/>
      <point x="34" y="-156"/>
      <point x="40" y="-138"/>
      <point x="55" y="-138" type="curve"/>
      <point x="253" y="516" type="line" smooth="yes"/>
      <point x="290" y="639"/>
      <point x="321" y="685"/>
      <point x="392" y="685" type="curve" smooth="yes"/>
      <point x="440" y="685"/>
      <point x="457" y="656"/>
      <point x="457" y="618" type="curve" smooth="yes"/>
      <point x="457" y="457"/>
      <point x="324" y="467"/>
      <point x="324" y="327" type="curve" smooth="yes"/>
      <point x="324" y="278"/>
      <point x="352" y="241"/>
      <point x="379" y="205" type="curve" smooth="yes"/>
      <point x="405" y="171"/>
      <point x="430" y="138"/>
      <point x="430" y="96" type="curve" smooth="yes"/>
      <point x="430" y="38"/>
      <point x="390" y="14"/>
      <point x="345" y="14" type="curve" smooth="yes"/>
      <point x="302" y="14"/>
      <point x="272" y="31"/>
      <point x="272" y="63" type="curve" smooth="yes"/>
      <point x="272" y="76"/>
      <point x="281" y="84"/>
      <point x="289" y="93" type="curve" smooth="yes"/>
      <point x="296" y="101"/>
      <point x="303" y="110"/>
      <point x="303" y="124" type="curve" smooth="yes"/>
      <point x="303" y="149"/>
      <point x="283" y="164"/>
      <point x="262" y="164" type="curve" smooth="yes"/>
      <point x="240" y="164"/>
      <point x="217" y="147"/>
      <point x="217" y="108" type="curve" smooth="yes"/>
      <point x="217" y="23"/>
      <point x="278" y="-9"/>
      <point x="347" y="-9" type="curve" smooth="yes"/>
      <point x="417" y="-9"/>
      <point x="489" y="34"/>
      <point x="489" y="114" type="curve" smooth="yes"/>
      <point x="489" y="167"/>
      <point x="460" y="205"/>
      <point x="432" y="241" type="curve" smooth="yes"/>
      <point x="406" y="274"/>
      <point x="381" y="306"/>
      <point x="381" y="345" type="curve" smooth="yes"/>
      <point x="381" y="491"/>
      <point x="520" y="484"/>
      <point x="520" y="611" type="curve" smooth="yes"/>
      <point x="520" y="668"/>
      <point x="477" y="711"/>
      <point x="390" y="711" type="curve" smooth="yes"/>
      <point x="296" y="711"/>
      <point x="232" y="654"/>
      <point x="186" y="501" type="curve" smooth="yes"/>
      <point x="-8" y="-137" type="line" smooth="yes"/>
      <point x="-26" y="-195"/>
      <point x="-52" y="-222"/>
      <point x="-82" y="-222" type="curve" smooth="yes"/>
      <point x="-100" y="-222"/>
      <point x="-113" y="-212"/>
      <point x="-113" y="-187" type="curve" smooth="yes"/>
      <point x="-113" y="-138"/>
      <point x="-134" y="-127"/>
      <point x="-157" y="-127" type="curve" smooth="yes"/>
      <point x="-180" y="-127"/>
      <point x="-201" y="-142"/>
      <point x="-201" y="-173" type="curve" smooth="yes"/>
      <point x="-201" y="-213"/>
      <point x="-146" y="-247"/>
    </contour>
    <contour>
      <point x="83" y="398" type="line"/>
      <point x="201" y="398" type="line"/>
      <point x="213" y="426" type="line"/>
      <point x="95" y="426" type="line"/>
    </contour>
  </outline>
</glyph>
<glyph name="oslash" format="2">
  <advance width="436"/>
  <unicode hex="00F8"/>
  <guideline x="73" y="270" angle="68"/>
  <guideline x="431" y="323" angle="68"/>
  <outline>
    <contour>
      <point x="-13" y="-9" type="line"/>
      <point x="466" y="412" type="line"/>
      <point x="445" y="434" type="line"/>
      <point x="-31" y="13" type="line"/>
    </contour>
    <component base="o"/>
  </outline>
</glyph>
<glyph name="eng" format="2">
  <advance width="487"/>
  <unicode hex="014B"/>
  <outline>
    <contour>
      <point x="120" y="-258" type="curve" smooth="yes"/>
      <point x="178" y="-258"/>
      <point x="212" y="-210"/>
      <point x="238" y="-173" type="curve" smooth="yes"/>
      <point x="255" y="-149"/>
      <point x="269" y="-129"/>
      <point x="285" y="-129" type="curve"/>
      <point x="488" y="352" type="line" smooth="yes"/>
      <point x="507" y="398"/>
      <point x="490" y="434"/>
      <point x="448" y="434" type="curve" smooth="yes"/>
      <point x="347" y="434"/>
      <point x="226" y="264"/>
      <point x="181" y="184" type="curve"/>
      <point x="176" y="184" type="line"/>
      <point x="246" y="354" type="line" smooth="yes"/>
      <point x="266" y="402"/>
      <point x="247" y="434"/>
      <point x="208" y="434" type="curve" smooth="yes"/>
      <point x="159" y="434"/>
      <point x="109" y="377"/>
      <point x="29" y="260" type="curve"/>
      <point x="45" y="251" type="line"/>
      <point x="89" y="314"/>
      <point x="148" y="384"/>
      <point x="172" y="384" type="curve" smooth="yes"/>
      <point x="182" y="384"/>
      <point x="190" y="372"/>
      <point x="177" y="339" type="curve" smooth="yes"/>
      <point x="38" y="-9" type="line"/>
      <point x="108" y="0" type="line"/>
      <point x="187" y="212"/>
      <point x="347" y="382"/>
      <point x="401" y="382" type="curve" smooth="yes"/>
      <point x="424" y="382"/>
      <point x="428" y="362"/>
      <point x="415" y="332" type="curve" smooth="yes"/>
      <point x="230" y="-111" type="line" smooth="yes"/>
      <point x="194" y="-199"/>
      <point x="165" y="-235"/>
      <point x="133" y="-235" type="curve" smooth="yes"/>
      <point x="117" y="-235"/>
      <point x="105" y="-228"/>
      <point x="105" y="-206" type="curve" smooth="yes"/>
      <point x="105" y="-164"/>
      <point x="86" y="-154"/>
      <point x="61" y="-154" type="curve" smooth="yes"/>
      <point x="37" y="-154"/>
      <point x="16" y="-167"/>
      <point x="16" y="-194" type="curve" smooth="yes"/>
      <point x="16" y="-230"/>
      <point x="60" y="-258"/>
    </contour>
  </outline>
</glyph>
<glyph name="Tbar" format="2">
  <advance width="694"/>
  <unicode hex="0166"/>
  <outline>
    <contour>
      <point x="182" y="322" type="line"/>
      <point x="602" y="322" type="line"/>
      <point x="617" y="360" type="line"/>
      <point x="197" y="360" type="line"/>
    </contour>
    <component base="T"/>
  </outline>
</glyph>
<glyph name="longs" format="2">
  <advance width="270"/>
  <unicode hex="017F"/>
  <outline>
    <contour>
      <point x="-92" y="-247" type="curve" smooth="yes"/>
      <point x="-37" y="-247"/>
      <point x="-3" y="-210"/>
      <point x="19" y="-178" type="curve" smooth="yes"/>
      <point x="34" y="-156"/>
      <point x="40" y="-138"/>
      <point x="55" y="-138" type="curve"/>
      <point x="253" y="516" type="line" smooth="yes"/>
      <point x="289" y="636"/>
      <point x="316" y="685"/>
      <point x="376" y="685" type="curve" smooth="yes"/>
      <point x="399" y="685"/>
      <point x="416" y="674"/>
      <point x="416" y="655" type="curve" smooth="yes"/>
      <point x="416" y="651"/>
      <point x="414" y="643"/>
      <point x="414" y="636" type="curve" smooth="yes"/>
      <point x="414" y="612"/>
      <point x="430" y="596"/>
      <point x="462" y="596" type="curve" smooth="yes"/>
      <point x="490" y="596"/>
      <point x="502" y="617"/>
      <point x="502" y="634" type="curve" smooth="yes"/>
      <point x="502" y="677"/>
      <point x="458" y="711"/>
      <point x="384" y="711" type="curve" smooth="yes"/>
      <point x="287" y="711"/>
      <point x="232" y="654"/>
      <point x="186" y="501" type="curve" smooth="yes"/>
      <point x="-8" y="-137" type="line" smooth="yes"/>
      <point x="-26" y="-195"/>
      <point x="-52" y="-222"/>
      <point x="-82" y="-222" type="curve" smooth="yes"/>
      <point x="-100" y="-222"/>
      <point x="-113" y="-212"/>
      <point x="-113" y="-187" type="curve" smooth="yes"/>
      <point x="-113" y="-138"/>
      <point x="-134" y="-127"/>
      <point x="-157" y="-127" type="curve" smooth="yes"/>
      <point x="-180" y="-127"/>
      <point x="-201" y="-142"/>
      <point x="-201" y="-173" type="curve" smooth="yes"/>
      <point x="-201" y="-213"/>
      <point x="-146" y="-247"/>
    </contour>
    <contour>
      <point x="83" y="398" type="line"/>
      <point x="197" y="398" type="line"/>
      <point x="209" y="426" type="line"/>
      <point x="95" y="426" type="line"/>
    </contour>
  </outline>
</glyph>
<glyph name="dotaccentcomb" format="2">
  <unicode hex="0307"/>
  <anchor x="367" y="470" name="_top"/>
  <outline>
    <contour>
      <point x="432" y="573" type="curve" smooth="yes"/>
      <point x="464" y="573"/>
      <point x="490" y="599"/>
      <point x="490" y="629" type="curve" smooth="yes"/>
      <point x="490" y="661"/>
      <point x="464" y="687"/>
      <point x="432" y="687" type="curve" smooth="yes"/>
      <point x="402" y="687"/>
      <point x="376" y="661"/>
      <point x="376" y="629" type="curve" smooth="yes"/>
      <point x="376" y="599"/>
      <point x="402" y="573"/>
    </contour>
  </outline>
</glyph>
<glyph name="ogonekcomb" format="2">
  <unicode hex="0328"/>
  <anchor x="174" y="-50" name="_bottom"/>
  <outline>
    <contour>
      <point x="84" y="-225" type="curve" smooth="yes"/>
      <point x="129" y="-225"/>
      <point x="184" y="-201"/>
      <point x="233" y="-162" type="curve"/>
      <point x="223" y="-142" type="line"/>
      <point x="187" y="-163"/>
      <point x="150" y="-181"/>
      <point x="120" y="-181" type="curve" smooth="yes"/>
      <point x="95" y="-181"/>
      <point x="78" y="-170"/>
      <point x="78" y="-145" type="curve" smooth="yes"/>
      <point x="78" y="-116"/>
      <point x="92" y="-86"/>
      <point x="113" y="-67" type="curve" smooth="yes"/>
      <point x="149" y="-35"/>
      <point x="203" y="-6"/>
      <point x="242" y="5" type="curve"/>
      <point x="204" y="12" type="line"/>
      <point x="161" y="-1"/>
      <point x="98" y="-27"/>
      <point x="57" y="-58" type="curve" smooth="yes"/>
      <point x="25" y="-83"/>
      <point x="9" y="-111"/>
      <point x="9" y="-151" type="curve" smooth="yes"/>
      <point x="9" y="-193"/>
      <point x="35" y="-225"/>
    </contour>
  </outline>
</glyph>
<glyph name="dagger" format="2">
  <advance width="538"/>
  <unicode hex="2020"/>
  <outline>
    <contour>
      <point x="104" y="-170" type="curve"/>
      <point x="122" y="-170" type="line"/>
      <point x="176" y="-38"/>
      <point x="292" y="213"/>
      <point x="346" y="253" type="curve"/>
      <point x="325" y="303"/>
      <point x="340" y="364"/>
      <point x="362" y="420" type="curve" smooth="yes"/>
      <point x="364" y="425" type="line"/>
      <point x="342" y="425" type="line"/>
      <point x="340" y="420" type="line" smooth="yes"/>
      <point x="301" y="323"/>
      <point x="238" y="267"/>
      <point x="221" y="253" type="curve"/>
      <point x="243" y="205"/>
      <point x="141" y="-78"/>
    </contour>
    <contour>
      <point x="150" y="374" type="curve" smooth="yes"/>
      <point x="174" y="374"/>
      <point x="194" y="383"/>
      <point x="225" y="393" type="curve" smooth="yes"/>
      <point x="261" y="404"/>
      <point x="300" y="417"/>
      <point x="340" y="417" type="curve" smooth="yes"/>
      <point x="363" y="417" type="line" smooth="yes"/>
      <point x="403" y="417"/>
      <point x="432" y="404"/>
      <point x="458" y="393" type="curve" smooth="yes"/>
      <point x="481" y="383"/>
      <point x="502" y="374"/>
      <point x="526" y="374" type="curve" smooth="yes"/>
      <point x="554" y="374"/>
      <point x="591" y="401"/>
      <point x="591" y="447" type="curve" smooth="yes"/>
      <point x="591" y="463"/>
      <point x="582" y="475"/>
      <point x="563" y="475" type="curve" smooth="yes"/>
      <point x="539" y="475"/>
      <point x="515" y="466"/>
      <point x="484" y="456" type="curve" smooth="yes"/>
      <point x="448" y="445"/>
      <point x="409" y="432"/>
      <point x="369" y="432" type="curve" smooth="yes"/>
      <point x="346" y="432" type="line" smooth="yes"/>
      <point x="306" y="432"/>
      <point x="277" y="445"/>
      <point x="251" y="456" type="curve" smooth="yes"/>
      <point x="228" y="466"/>
      <point x="207" y="475"/>
      <point x="183" y="475" type="curve" smooth="yes"/>
      <point x="155" y="475"/>
      <point x="118" y="451"/>
      <point x="118" y="403" type="curve" smooth="yes"/>
      <point x="118" y="388"/>
      <point x="126" y="374"/>
    </contour>
    <contour>
      <point x="346" y="425" type="line"/>
      <point x="361" y="425" type="line"/>
      <point x="372" y="451" type="line" smooth="yes"/>
      <point x="390" y="497"/>
      <point x="419" y="535"/>
      <point x="444" y="570" type="curve" smooth="yes"/>
      <point x="465" y="600"/>
      <point x="501" y="648"/>
      <point x="501" y="672" type="curve" smooth="yes"/>
      <point x="501" y="694"/>
      <point x="478" y="702"/>
      <point x="465" y="702" type="curve" smooth="yes"/>
      <point x="449" y="702"/>
      <point x="410" y="690"/>
      <point x="396" y="655" type="curve" smooth="yes"/>
      <point x="385" y="628"/>
      <point x="383" y="601"/>
      <point x="381" y="570" type="curve" smooth="yes"/>
      <point x="378" y="535"/>
      <point x="375" y="497"/>
      <point x="357" y="451" type="curve" smooth="yes"/>
    </contour>
  </outline>
</glyph>
<glyph name="bullet" format="2">
  <advance width="361"/>
  <unicode hex="2022"/>
  <outline>
    <contour>
      <point x="121" y="359" type="curve" smooth="yes"/>
      <point x="121" y="293"/>
      <point x="173" y="241"/>
      <point x="239" y="241" type="curve" smooth="yes"/>
      <point x="305" y="241"/>
      <point x="358" y="293"/>
      <point x="358" y="359" type="curve" smooth="yes"/>
      <point x="358" y="425"/>
      <point x="305" y="478"/>
      <point x="239" y="478" type="curve" smooth="yes"/>
      <point x="173" y="478"/>
      <point x="121" y="425"/>
    </contour>
  </outline>
</glyph>
<glyph name="product" format="2">
  <advance width="820"/>
  <unicode hex="220F"/>
  <outline>
    <contour>
      <point x="510" y="-107" type="line"/>
      <point x="850" y="-107" type="line"/>
      <point x="850" y="-89" type="line"/>
      <point x="789" y="-78" type="line" smooth="yes"/>
      <point x="734" y="-68"/>
      <point x="725" y="-61"/>
      <point x="725" y="-19" type="curve" smooth="yes"/>
      <point x="725" y="623" type="line" smooth="yes"/>
      <point x="725" y="665"/>
      <point x="734" y="672"/>
      <point x="789" y="682" type="curve" smooth="yes"/>
      <point x="850" y="693" type="line"/>
      <point x="850" y="711" type="line"/>
      <point x="510" y="711" type="line"/>
      <point x="510" y="693" type="line"/>
      <point x="635" y="693" type="line"/>
      <point x="635" y="-19" type="line" smooth="yes"/>
      <point x="635" y="-61"/>
      <point x="626" y="-68"/>
      <point x="571" y="-78" type="curve" smooth="yes"/>
      <point x="510" y="-89" type="line"/>
    </contour>
    <contour>
      <point x="110" y="-107" type="line"/>
      <point x="450" y="-107" type="line"/>
      <point x="450" y="-89" type="line"/>
      <point x="389" y="-78" type="line" smooth="yes"/>
      <point x="334" y="-68"/>
      <point x="325" y="-61"/>
      <point x="325" y="-19" type="curve" smooth="yes"/>
      <point x="325" y="690" type="line"/>
      <point x="450" y="693" type="line"/>
      <point x="450" y="711" type="line"/>
      <point x="110" y="711" type="line"/>
      <point x="110" y="693" type="line"/>
      <point x="171" y="682" type="line" smooth="yes"/>
      <point x="226" y="672"/>
      <point x="235" y="665"/>
      <point x="235" y="623" type="curve" smooth="yes"/>
      <point x="235" y="-19" type="line" smooth="yes"/>
      <point x="235" y="-61"/>
      <point x="226" y="-68"/>
      <point x="171" y="-78" type="curve" smooth="yes"/>
      <point x="110" y="-89" type="line"/>
    </contour>
    <contour>
      <point x="307" y="683" type="line"/>
      <point x="659" y="683" type="line"/>
      <point x="659" y="711" type="line"/>
      <point x="307" y="711" type="line"/>
    </contour>
  </outline>
</glyph>
<glyph name="radical" format="2">
  <advance width="400"/>
  <unicode hex="221A"/>
  <outline>
    <contour>
      <point x="264" y="0" type="line"/>
      <point x="298" y="0" type="line"/>
      <point x="455" y="711" type="line"/>
      <point x="421" y="711" type="line"/>
    </contour>
    <contour>
      <point x="244" y="0" type="line"/>
      <point x="298" y="0" type="line"/>
      <point x="195" y="410" type="line"/>
      <point x="138" y="410" type="line"/>
    </contour>
    <contour>
      <point x="85" y="363" type="line"/>
      <point x="195" y="363" type="line"/>
      <point x="195" y="410" type="line"/>
      <point x="85" y="410" type="line"/>
    </contour>
  </outline>
</glyph>
<glyph name="infinity" format="2">
  <advance width="763"/>
  <unicode hex="221E"/>
  <outline>
    <contour>
      <point x="275" y="160" type="curve" smooth="yes"/>
      <point x="370" y="160"/>
      <point x="413" y="241"/>
      <point x="458" y="309" type="curve" smooth="yes"/>
      <point x="499" y="372"/>
      <point x="541" y="440"/>
      <point x="615" y="440" type="curve" smooth="yes"/>
      <point x="675" y="440"/>
      <point x="725" y="403"/>
      <point x="725" y="340" type="curve" smooth="yes"/>
      <point x="725" y="272"/>
      <point x="683" y="225"/>
      <point x="594" y="225" type="curve" smooth="yes"/>
      <point x="537" y="225"/>
      <point x="481" y="256"/>
      <point x="449" y="318" type="curve"/>
      <point x="431" y="295" type="line"/>
      <point x="455" y="227"/>
      <point x="522" y="160"/>
      <point x="606" y="160" type="curve" smooth="yes"/>
      <point x="697" y="160"/>
      <point x="754" y="237"/>
      <point x="754" y="330" type="curve" smooth="yes"/>
      <point x="754" y="431"/>
      <point x="685" y="507"/>
      <point x="586" y="507" type="curve" smooth="yes"/>
      <point x="491" y="507"/>
      <point x="447" y="427"/>
      <point x="404" y="361" type="curve" smooth="yes"/>
      <point x="362" y="298"/>
      <point x="320" y="227"/>
      <point x="246" y="227" type="curve" smooth="yes"/>
      <point x="186" y="227"/>
      <point x="136" y="264"/>
      <point x="136" y="327" type="curve" smooth="yes"/>
      <point x="136" y="395"/>
      <point x="178" y="442"/>
      <point x="267" y="442" type="curve" smooth="yes"/>
      <point x="324" y="442"/>
      <point x="380" y="411"/>
      <point x="412" y="349" type="curve"/>
      <point x="430" y="372" type="line"/>
      <point x="406" y="440"/>
      <point x="339" y="507"/>
      <point x="255" y="507" type="curve" smooth="yes"/>
      <point x="164" y="507"/>
      <point x="107" y="430"/>
      <point x="107" y="337" type="curve" smooth="yes"/>
      <point x="107" y="237"/>
      <point x="176" y="160"/>
    </contour>
  </outline>
</glyph>
<glyph name="one.onum" format="2">
  <advance width="317"/>
  <unicode hex="F644"/>
  <outline>
    <contour>
      <point x="-51" y="0" type="line"/>
      <point x="196" y="0" type="line"/>
      <point x="202" y="15" type="line"/>
      <point x="168" y="21" type="line" smooth="yes"/>
      <point x="125" y="29"/>
      <point x="121" y="38"/>
      <point x="136" y="74" type="curve" smooth="yes"/>
      <point x="248" y="352" type="line" smooth="yes"/>
      <point x="263" y="388"/>
      <point x="273" y="397"/>
      <point x="324" y="405" type="curve" smooth="yes"/>
      <point x="362" y="411" type="line"/>
      <point x="368" y="426" type="line"/>
      <point x="121" y="426" type="line"/>
      <point x="115" y="411" type="line"/>
      <point x="149" y="405" type="line" smooth="yes"/>
      <point x="192" y="397"/>
      <point x="196" y="388"/>
      <point x="181" y="352" type="curve" smooth="yes"/>
      <point x="69" y="74" type="line" smooth="yes"/>
      <point x="54" y="38"/>
      <point x="44" y="29"/>
      <point x="-7" y="21" type="curve" smooth="yes"/>
      <point x="-45" y="15" type="line"/>
    </contour>
  </outline>
</glyph>
<glyph name="two.onum" format="2">
  <advance width="424"/>
  <unicode hex="F645"/>
  <outline>
    <contour>
      <point x="-66" y="0" type="line"/>
      <point x="273" y="0" type="line"/>
      <point x="353" y="132" type="line"/>
      <point x="335" y="132" type="line"/>
      <point x="322" y="115" type="line" smooth="yes"/>
      <point x="285" y="67"/>
      <point x="271" y="59"/>
      <point x="237" y="59" type="curve" smooth="yes"/>
      <point x="75" y="59" type="line"/>
      <point x="76" y="62" type="line"/>
      <point x="210" y="131"/>
      <point x="397" y="251"/>
      <point x="397" y="352" type="curve" smooth="yes"/>
      <point x="397" y="402"/>
      <point x="361" y="434"/>
      <point x="284" y="434" type="curve" smooth="yes"/>
      <point x="197" y="434"/>
      <point x="69" y="382"/>
      <point x="69" y="300" type="curve" smooth="yes"/>
      <point x="69" y="272"/>
      <point x="90" y="259"/>
      <point x="110" y="259" type="curve" smooth="yes"/>
      <point x="140" y="259"/>
      <point x="164" y="284"/>
      <point x="164" y="305" type="curve" smooth="yes"/>
      <point x="164" y="320"/>
      <point x="159" y="329"/>
      <point x="154" y="337" type="curve" smooth="yes"/>
      <point x="150" y="344"/>
      <point x="146" y="350"/>
      <point x="146" y="359" type="curve" smooth="yes"/>
      <point x="146" y="383"/>
      <point x="197" y="406"/>
      <point x="243" y="406" type="curve" smooth="yes"/>
      <point x="290" y="406"/>
      <point x="315" y="384"/>
      <point x="315" y="348" type="curve" smooth="yes"/>
      <point x="315" y="202"/>
      <point x="90" y="81"/>
      <point x="-58" y="18" type="curve"/>
    </contour>
  </outline>
</glyph>
<glyph name="five.onum" format="2">
  <advance width="476"/>
  <unicode hex="F648"/>
  <outline>
    <contour>
      <point x="26" y="-256" type="curve" smooth="yes"/>
      <point x="159" y="-256"/>
      <point x="325" y="-164"/>
      <point x="325" y="-7" type="curve" smooth="yes"/>
      <point x="325" y="72"/>
      <point x="268" y="151"/>
      <point x="149" y="204" type="curve"/>
      <point x="215" y="348" type="line"/>
      <point x="455" y="348" type="line"/>
      <point x="513" y="445" type="line"/>
      <point x="497" y="445" type="line"/>
      <point x="493" y="440" type="line" smooth="yes"/>
      <point x="476" y="418"/>
      <point x="462" y="407"/>
      <point x="437" y="407" type="curve" smooth="yes"/>
      <point x="212" y="407" type="line"/>
      <point x="97" y="158" type="line"/>
      <point x="101" y="153" type="line"/>
      <point x="206" y="103"/>
      <point x="246" y="52"/>
      <point x="246" y="-22" type="curve" smooth="yes"/>
      <point x="246" y="-126"/>
      <point x="160" y="-228"/>
      <point x="18" y="-228" type="curve" smooth="yes"/>
      <point x="-36" y="-228"/>
      <point x="-69" y="-207"/>
      <point x="-69" y="-183" type="curve" smooth="yes"/>
      <point x="-69" y="-166"/>
      <point x="-38" y="-156"/>
      <point x="-38" y="-120" type="curve" smooth="yes"/>
      <point x="-38" y="-105"/>
      <point x="-48" y="-81"/>
      <point x="-83" y="-81" type="curve" smooth="yes"/>
      <point x="-114" y="-81"/>
      <point x="-131" y="-114"/>
      <point x="-131" y="-143" type="curve" smooth="yes"/>
      <point x="-131" y="-220"/>
      <point x="-56" y="-256"/>
    </contour>
  </outline>
</glyph>
<glyph name="six.onum" format="2">
  <advance width="508"/>
  <unicode hex="F649"/>
  <outline>
    <contour>
      <point x="172" y="-8" type="curve" smooth="yes"/>
      <point x="321" y="-8"/>
      <point x="482" y="119"/>
      <point x="482" y="287" type="curve" smooth="yes"/>
      <point x="482" y="357"/>
      <point x="444" y="411"/>
      <point x="355" y="411" type="curve" smooth="yes"/>
      <point x="271" y="411"/>
      <point x="187" y="359"/>
      <point x="154" y="298" type="curve"/>
      <point x="132" y="225" type="line"/>
      <point x="169" y="305"/>
      <point x="239" y="379"/>
      <point x="335" y="379" type="curve" smooth="yes"/>
      <point x="387" y="379"/>
      <point x="409" y="349"/>
      <point x="409" y="303" type="curve" smooth="yes"/>
      <point x="409" y="173"/>
      <point x="311" y="14"/>
      <point x="181" y="14" type="curve" smooth="yes"/>
      <point x="137" y="14"/>
      <point x="107" y="42"/>
      <point x="107" y="104" type="curve" smooth="yes"/>
      <point x="107" y="142"/>
      <point x="118" y="192"/>
      <point x="144" y="256" type="curve" smooth="yes"/>
      <point x="230" y="470"/>
      <point x="371" y="631"/>
      <point x="588" y="671" type="curve"/>
      <point x="593" y="682" type="line"/>
      <point x="383" y="682"/>
      <point x="170" y="510"/>
      <point x="71" y="265" type="curve" smooth="yes"/>
      <point x="47" y="204"/>
      <point x="36" y="155"/>
      <point x="36" y="117" type="curve" smooth="yes"/>
      <point x="36" y="25"/>
      <point x="97" y="-8"/>
    </contour>
  </outline>
</glyph>
<glyph name="f_f_i" format="2">
  <advance width="851"/>
  <unicode hex="FB03"/>
  <anchor x="197" y="0" name="caret_1"/>
  <anchor x="503" y="0" name="caret_2"/>
  <outline>
    <contour>
      <point x="-92" y="-247" type="curve" smooth="yes"/>
      <point x="-37" y="-247"/>
      <point x="-3" y="-210"/>
      <point x="19" y="-178" type="curve" smooth="yes"/>
      <point x="34" y="-156"/>
      <point x="50" y="-149"/>
      <point x="53" y="-138" type="curve" smooth="yes"/>
      <point x="241" y="486" type="line" smooth="yes"/>
      <point x="280" y="613"/>
      <point x="327" y="655"/>
      <point x="411" y="655" type="curve" smooth="yes"/>
      <point x="473" y="655"/>
      <point x="507" y="604"/>
      <point x="514" y="566" type="curve"/>
      <point x="554" y="614" type="line"/>
      <point x="528" y="649"/>
      <point x="502" y="681"/>
      <point x="410" y="681" type="curve" smooth="yes"/>
      <point x="291" y="681"/>
      <point x="220" y="615"/>
      <point x="165" y="434" type="curve" smooth="yes"/>
      <point x="-8" y="-137" type="line" smooth="yes"/>
      <point x="-26" y="-195"/>
      <point x="-52" y="-222"/>
      <point x="-82" y="-222" type="curve" smooth="yes"/>
      <point x="-100" y="-222"/>
      <point x="-113" y="-212"/>
      <point x="-113" y="-187" type="curve" smooth="yes"/>
      <point x="-113" y="-138"/>
      <point x="-134" y="-127"/>
      <point x="-157" y="-127" type="curve" smooth="yes"/>
      <point x="-180" y="-127"/>
      <point x="-201" y="-142"/>
      <point x="-201" y="-173" type="curve" smooth="yes"/>
      <point x="-201" y="-213"/>
      <point x="-146" y="-247"/>
    </contour>
    <contour>
      <point x="83" y="398" type="line"/>
      <point x="373" y="398" type="line"/>
      <point x="385" y="426" type="line"/>
      <point x="95" y="426" type="line"/>
    </contour>
    <component base="fi" xOffset="282"/>
  </outline>
</glyph>
<glyph name="s_t" format="2">
  <advance width="666"/>
  <unicode hex="FB06"/>
  <anchor x="326" y="0" name="caret_1"/>
  <outline>
    <contour>
      <point x="283" y="323" type="curve"/>
      <point x="298" y="421" type="line"/>
      <point x="274" y="448"/>
      <point x="260" y="480"/>
      <point x="260" y="507" type="curve" smooth="yes"/>
      <point x="260" y="550"/>
      <point x="286" y="570"/>
      <point x="321" y="570" type="curve" smooth="yes"/>
      <point x="363" y="570"/>
      <point x="395" y="543"/>
      <point x="428" y="516" type="curve" smooth="yes"/>
      <point x="460" y="489"/>
      <point x="496" y="462"/>
      <point x="540" y="462" type="curve" smooth="yes"/>
      <point x="637" y="462"/>
      <point x="661" y="540"/>
      <point x="661" y="591" type="curve" smooth="yes"/>
      <point x="661" y="633"/>
      <point x="636" y="682"/>
      <point x="592" y="682" type="curve" smooth="yes"/>
      <point x="569" y="682"/>
      <point x="551" y="668"/>
      <point x="551" y="643" type="curve" smooth="yes"/>
      <point x="551" y="615"/>
      <point x="571" y="609"/>
      <point x="592" y="603" type="curve" smooth="yes"/>
      <point x="613" y="597"/>
      <point x="635" y="591"/>
      <point x="635" y="563" type="curve" smooth="yes"/>
      <point x="635" y="536"/>
      <point x="615" y="506"/>
      <point x="564" y="506" type="curve" smooth="yes"/>
      <point x="537" y="506"/>
      <point x="504" y="528"/>
      <point x="472" y="551" type="curve" smooth="yes"/>
      <point x="433" y="579"/>
      <point x="389" y="610"/>
      <point x="341" y="610" type="curve" smooth="yes"/>
      <point x="281" y="610"/>
      <point x="235" y="570"/>
      <point x="235" y="493" type="curve" smooth="yes"/>
      <point x="235" y="448"/>
      <point x="250" y="379"/>
    </contour>
    <component base="s"/>
    <component base="t" xOffset="362"/>
  </outline>
</glyph>
<glyph name="ae.sc" format="2">
  <advance width="906"/>
  <outline>
    <contour>
      <point x="-50" y="0" type="line"/>
      <point x="165" y="0" type="line"/>
      <point x="172" y="15" type="line"/>
      <point x="123" y="24" type="line" smooth="yes"/>
      <point x="91" y="30"/>
      <point x="95" y="45"/>
      <point x="120" y="66" type="curve" smooth="yes"/>
      <point x="605" y="476" type="line"/>
      <point x="597" y="501" type="line"/>
      <point x="92" y="67" type="line" smooth="yes"/>
      <point x="65" y="44"/>
      <point x="42" y="27"/>
      <point x="1" y="21" type="curve" smooth="yes"/>
      <point x="-43" y="14" type="line"/>
    </contour>
    <contour>
      <point x="247" y="183" type="line"/>
      <point x="474" y="183" type="line"/>
      <point x="487" y="209" type="line"/>
      <point x="266" y="209" type="line"/>
    </contour>
    <component base="e.sc" xOffset="308"/>
  </outline>
</glyph>
<glyph name="f_b" format="2">
  <advance width="727"/>
  <anchor x="213" y="0" name="caret_1"/>
  <outline>
    <contour>
      <point x="-92" y="-247" type="curve" smooth="yes"/>
      <point x="-37" y="-247"/>
      <point x="-3" y="-210"/>
      <point x="19" y="-178" type="curve" smooth="yes"/>
      <point x="34" y="-156"/>
      <point x="50" y="-149"/>
      <point x="53" y="-138" type="curve" smooth="yes"/>
      <point x="250" y="516" type="line" smooth="yes"/>
      <point x="288" y="643"/>
      <point x="336" y="685"/>
      <point x="420" y="685" type="curve" smooth="yes"/>
      <point x="482" y="685"/>
      <point x="516" y="634"/>
      <point x="523" y="596" type="curve"/>
      <point x="563" y="644" type="line"/>
      <point x="537" y="679"/>
      <point x="511" y="711"/>
      <point x="419" y="711" type="curve" smooth="yes"/>
      <point x="300" y="711"/>
      <point x="229" y="645"/>
      <point x="174" y="464" type="curve" smooth="yes"/>
      <point x="-8" y="-137" type="line" smooth="yes"/>
      <point x="-26" y="-195"/>
      <point x="-52" y="-222"/>
      <point x="-82" y="-222" type="curve" smooth="yes"/>
      <point x="-100" y="-222"/>
      <point x="-113" y="-212"/>
      <point x="-113" y="-187" type="curve" smooth="yes"/>
      <point x="-113" y="-138"/>
      <point x="-134" y="-127"/>
      <point x="-157" y="-127" type="curve" smooth="yes"/>
      <point x="-180" y="-127"/>
      <point x="-201" y="-142"/>
      <point x="-201" y="-173" type="curve" smooth="yes"/>
      <point x="-201" y="-213"/>
      <point x="-146" y="-247"/>
    </contour>
    <contour>
      <point x="83" y="398" type="line"/>
      <point x="455" y="398" type="line"/>
      <point x="467" y="426" type="line"/>
      <point x="95" y="426" type="line"/>
    </contour>
    <contour>
      <point x="433" y="40" type="curve" smooth="yes"/>
      <point x="403" y="40"/>
      <point x="386" y="55"/>
      <point x="386" y="91" type="curve" smooth="yes"/>
      <point x="386" y="204"/>
      <point x="529" y="382"/>
      <point x="605" y="382" type="curve" smooth="yes"/>
      <point x="631" y="382"/>
      <point x="651" y="367"/>
      <point x="651" y="325" type="curve" smooth="yes"/>
      <point x="651" y="239"/>
      <point x="606" y="163"/>
      <point x="556" y="111" type="curve" smooth="yes"/>
      <point x="514" y="67"/>
      <point x="468" y="40"/>
    </contour>
    <contour>
      <point x="392" y="-8" type="curve" smooth="yes"/>
      <point x="519" y="-8"/>
      <point x="726" y="219"/>
      <point x="726" y="357" type="curve" smooth="yes"/>
      <point x="726" y="416"/>
      <point x="696" y="434"/>
      <point x="662" y="434" type="curve" smooth="yes"/>
      <point x="601" y="434"/>
      <point x="529" y="384"/>
      <point x="480" y="328" type="curve"/>
      <point x="475" y="328" type="line"/>
      <point x="588" y="625" type="line" smooth="yes"/>
      <point x="598" y="651"/>
      <point x="611" y="681"/>
      <point x="626" y="706" type="curve"/>
      <point x="614" y="712" type="line"/>
      <point x="580" y="698"/>
      <point x="545" y="688"/>
      <point x="507" y="680" type="curve"/>
      <point x="513" y="656" type="line"/>
      <point x="533" y="652"/>
      <point x="534" y="642"/>
      <point x="530" y="631" type="curve" smooth="yes"/>
      <point x="334" y="127" type="line" smooth="yes"/>
      <point x="326" y="106"/>
      <point x="322" y="86"/>
      <point x="322" y="69" type="curve" smooth="yes"/>
      <point x="322" y="22"/>
      <point x="350" y="-8"/>
    </contour>
  </outline>
</glyph>
<glyph name="f_j" format="2">
  <advance width="523"/>
  <anchor x="209" y="0" name="caret_1"/>
  <outline>
    <contour>
      <point x="-92" y="-247" type="curve" smooth="yes"/>
      <point x="-37" y="-247"/>
      <point x="-3" y="-210"/>
      <point x="19" y="-178" type="curve" smooth="yes"/>
      <point x="34" y="-156"/>
      <point x="50" y="-149"/>
      <point x="53" y="-138" type="curve" smooth="yes"/>
      <point x="251" y="516" type="line" smooth="yes"/>
      <point x="290" y="643"/>
      <point x="337" y="685"/>
      <point x="421" y="685" type="curve" smooth="yes"/>
      <point x="452" y="685"/>
      <point x="475" y="674"/>
      <point x="475" y="655" type="curve" smooth="yes"/>
      <point x="475" y="651"/>
      <point x="472" y="643"/>
      <point x="472" y="636" type="curve" smooth="yes"/>
      <point x="472" y="612"/>
      <point x="488" y="596"/>
      <point x="520" y="596" type="curve" smooth="yes"/>
      <point x="548" y="596"/>
      <point x="560" y="617"/>
      <point x="560" y="634" type="curve" smooth="yes"/>
      <point x="560" y="677"/>
      <point x="512" y="711"/>
      <point x="420" y="711" type="curve" smooth="yes"/>
      <point x="301" y="711"/>
      <point x="230" y="645"/>
      <point x="175" y="464" type="curve" smooth="yes"/>
      <point x="-8" y="-137" type="line" smooth="yes"/>
      <point x="-26" y="-195"/>
      <point x="-52" y="-222"/>
      <point x="-82" y="-222" type="curve" smooth="yes"/>
      <point x="-100" y="-222"/>
      <point x="-113" y="-212"/>
      <point x="-113" y="-187" type="curve" smooth="yes"/>
      <point x="-113" y="-138"/>
      <point x="-134" y="-127"/>
      <point x="-157" y="-127" type="curve" smooth="yes"/>
      <point x="-180" y="-127"/>
      <point x="-201" y="-142"/>
      <point x="-201" y="-173" type="curve" smooth="yes"/>
      <point x="-201" y="-213"/>
      <point x="-146" y="-247"/>
    </contour>
    <contour>
      <point x="164" y="-258" type="curve" smooth="yes"/>
      <point x="222" y="-258"/>
      <point x="256" y="-210"/>
      <point x="282" y="-173" type="curve" smooth="yes"/>
      <point x="299" y="-149"/>
      <point x="308" y="-129"/>
      <point x="324" y="-129" type="curve"/>
      <point x="495" y="343" type="line" smooth="yes"/>
      <point x="513" y="393"/>
      <point x="495" y="426"/>
      <point x="428" y="426" type="curve" smooth="yes"/>
      <point x="95" y="426" type="line"/>
      <point x="83" y="398" type="line"/>
      <point x="406" y="398" type="line" smooth="yes"/>
      <point x="440" y="398"/>
      <point x="448" y="385"/>
      <point x="437" y="353" type="curve" smooth="yes"/>
      <point x="274" y="-111" type="line" smooth="yes"/>
      <point x="243" y="-200"/>
      <point x="209" y="-235"/>
      <point x="177" y="-235" type="curve" smooth="yes"/>
      <point x="161" y="-235"/>
      <point x="149" y="-228"/>
      <point x="149" y="-206" type="curve" smooth="yes"/>
      <point x="149" y="-164"/>
      <point x="130" y="-154"/>
      <point x="105" y="-154" type="curve" smooth="yes"/>
      <point x="81" y="-154"/>
      <point x="60" y="-167"/>
      <point x="60" y="-194" type="curve" smooth="yes"/>
      <point x="60" y="-230"/>
      <point x="104" y="-258"/>
    </contour>
  </outline>
</glyph>
<glyph name="i.sc" format="2">
  <advance width="390"/>
  <anchor x="334" y="552" name="top"/>
  <outline>
    <contour>
      <point x="-34" y="0" type="line"/>
      <point x="252" y="0" type="line"/>
      <point x="257" y="14" type="line"/>
      <point x="210" y="23" type="line" smooth="yes"/>
      <point x="167" y="31"/>
      <point x="162" y="36"/>
      <point x="176" y="70" type="curve" smooth="yes"/>
      <point x="336" y="468" type="line" smooth="yes"/>
      <point x="349" y="502"/>
      <point x="359" y="507"/>
      <point x="409" y="515" type="curve" smooth="yes"/>
      <point x="464" y="524" type="line"/>
      <point x="469" y="538" type="line"/>
      <point x="184" y="538" type="line"/>
      <point x="178" y="524" type="line"/>
      <point x="226" y="515" type="line" smooth="yes"/>
      <point x="269" y="507"/>
      <point x="273" y="502"/>
      <point x="260" y="468" type="curve" smooth="yes"/>
      <point x="100" y="70" type="line" smooth="yes"/>
      <point x="86" y="37"/>
      <point x="76" y="31"/>
      <point x="27" y="23" type="curve" smooth="yes"/>
      <point x="-28" y="14" type="line"/>
    </contour>
  </outline>
</glyph>
<glyph name="lslash.sc" format="2">
  <advance width="622"/>
  <outline>
    <contour>
      <point x="32" y="164" type="line"/>
      <point x="499" y="290" type="line"/>
      <point x="515" y="330" type="line"/>
      <point x="49" y="204" type="line"/>
    </contour>
    <component base="l.sc"/>
  </outline>
</glyph>
<glyph name="oslash.sc" format="2">
  <advance width="708"/>
  <outline>
    <contour>
      <point x="-1" y="-6" type="line"/>
      <point x="784" y="521" type="line"/>
      <point x="765" y="545" type="line"/>
      <point x="-19" y="18" type="line"/>
    </contour>
    <component base="o.sc"/>
  </outline>
</glyph>
<glyph name="t.sc" format="2">
  <advance width="618"/>
  <anchor x="468" y="552" name="top"/>
  <outline>
    <contour>
      <point x="94" y="0" type="line"/>
      <point x="380" y="0" type="line"/>
      <point x="386" y="14" type="line"/>
      <point x="338" y="23" type="line" smooth="yes"/>
      <point x="295" y="31"/>
      <point x="290" y="36"/>
      <point x="304" y="70" type="curve" smooth="yes"/>
      <point x="485" y="519" type="line"/>
      <point x="564" y="519" type="line"/>
      <point x="646" y="519"/>
      <point x="665" y="465"/>
      <point x="658" y="397" type="curve"/>
      <point x="676" y="397" type="line"/>
      <point x="690" y="458"/>
      <point x="699" y="494"/>
      <point x="724" y="538" type="curve"/>
      <point x="184" y="538" type="line"/>
      <point x="172" y="494"/>
      <point x="155" y="458"/>
      <point x="118" y="397" type="curve"/>
      <point x="136" y="397" type="line"/>
      <point x="185" y="465"/>
      <point x="246" y="519"/>
      <point x="329" y="519" type="curve" smooth="yes"/>
      <point x="409" y="519" type="line"/>
      <point x="228" y="70" type="line" smooth="yes"/>
      <point x="214" y="36"/>
      <point x="204" y="31"/>
      <point x="155" y="23" type="curve" smooth="yes"/>
      <point x="100" y="14" type="line"/>
    </contour>
  </outline>
</glyph>
<glyph name="tilde.sc" format="2">
  <advance width="530"/>
  <guideline x="392" y="526" angle="68"/>
  <anchor x="403" y="552" name="_top"/>
  <outline>
    <contour>
      <point x="163" y="624" type="line"/>
      <point x="272" y="624" type="line"/>
      <point x="301" y="683"/>
      <point x="378" y="731"/>
      <point x="474" y="731" type="curve" smooth="yes"/>
      <point x="569" y="731"/>
      <point x="604" y="682"/>
      <point x="588" y="624" type="curve"/>
      <point x="698" y="624" type="line"/>
      <point x="704" y="637" type="line"/>
      <point x="695" y="637" type="line" smooth="yes"/>
      <point x="632" y="637"/>
      <point x="631" y="647"/>
      <point x="626" y="673" type="curve" smooth="yes"/>
      <point x="613" y="728"/>
      <point x="584" y="772"/>
      <point x="491" y="772" type="curve" smooth="yes"/>
      <point x="397" y="772"/>
      <point x="331" y="731"/>
      <point x="274" y="675" type="curve" smooth="yes"/>
      <point x="248" y="650"/>
      <point x="240" y="637"/>
      <point x="178" y="637" type="curve" smooth="yes"/>
      <point x="169" y="637" type="line"/>
    </contour>
  </outline>
</glyph>
<glyph name="y.sc" format="2">
  <advance width="630"/>
  <anchor x="480" y="552" name="top"/>
  <outline>
    <contour>
      <point x="321" y="244" type="line"/>
      <point x="381" y="257" type="line"/>
      <point x="613" y="470" type="line" smooth="yes"/>
      <point x="650" y="504"/>
      <point x="679" y="514"/>
      <point x="712" y="519" type="curve" smooth="yes"/>
      <point x="747" y="524" type="line"/>
      <point x="753" y="538" type="line"/>
      <point x="539" y="538" type="line"/>
      <point x="533" y="524" type="line"/>
      <point x="581" y="513" type="line" smooth="yes"/>
      <point x="608" y="507"/>
      <point x="604" y="493"/>
      <point x="578" y="470" type="curve" smooth="yes"/>
      <point x="375" y="282" type="line"/>
      <point x="383" y="282" type="line"/>
      <point x="315" y="464" type="line" smooth="yes"/>
      <point x="303" y="498"/>
      <point x="320" y="512"/>
      <point x="367" y="518" type="curve" smooth="yes"/>
      <point x="413" y="524" type="line"/>
      <point x="419" y="538" type="line"/>
      <point x="168" y="538" type="line"/>
      <point x="161" y="523" type="line"/>
      <point x="185" y="519" type="line" smooth="yes"/>
      <point x="213" y="514"/>
      <point x="223" y="505"/>
      <point x="231" y="483" type="curve" smooth="yes"/>
    </contour>
    <contour>
      <point x="104" y="0" type="line"/>
      <point x="390" y="0" type="line"/>
      <point x="395" y="14" type="line"/>
      <point x="348" y="23" type="line" smooth="yes"/>
      <point x="305" y="31"/>
      <point x="300" y="36"/>
      <point x="313" y="70" type="curve" smooth="yes"/>
      <point x="394" y="272" type="line"/>
      <point x="315" y="264" type="line"/>
      <point x="237" y="70" type="line" smooth="yes"/>
      <point x="224" y="36"/>
      <point x="215" y="31"/>
      <point x="165" y="23" type="curve" smooth="yes"/>
      <point x="109" y="14" type="line"/>
    </contour>
  </outline>
</glyph>
